<?xml version="1.0" encoding="UTF-8" standalone="no"?>
<svg
  version="1.1"
  id="s"
  width="677.34125"
  height="742.04053"
  viewBox="0 0 677.34125 742.04053"
  xmlns="http://www.w3.org/2000/svg"
  xmlns:svg="http://www.w3.org/2000/svg">
  <title id="s-title">S</title>
  <g
    id="s-g"
    transform="translate(-295.30954,-226)">
    <path
      style="fill:#6d28d9"
      d="M 378.99714,902.52025 444.49427,837 583.49714,836.997 c 94.83741,-0.002 141.86243,-0.35186 148.00286,-1.10137 20.9668,-2.55926 39.25785,-9.31642 57.07918,-21.08647 36.69714,-24.23653 58.53262,-64.52686 58.69862,-108.30934 0.0794,-20.9415 -3.84735,-37.81372 -13.03313,-56 -13.01598,-25.7694 -39.62496,-50.93548 -67.7546,-64.08054 -11.05545,-5.16605 -11.52873,-5.3203 -68.99007,-22.48341 -118.45242,-35.38052 -155.77023,-46.90063 -160.2212,-49.46073 -6.96496,-4.00608 -13.80858,-11.64017 -16.39337,-18.28688 -3.07807,-7.91517 -3.03266,-18.57134 0.11374,-26.68826 3.17027,-8.17849 12.20581,-17.25223 20.50083,-20.58751 l 6,-2.41249 h 96 c 88.29777,0 96.88255,0.14661 107,1.82739 42.07829,6.99033 75.9667,20.11479 109,42.21404 16.09676,10.76872 26.44693,19.31244 40.54363,33.4674 37.33909,37.49344 60.53294,82.78888 70.14698,136.9906 3.05429,17.21931 3.32465,62.47058 0.4744,79.39922 -13.30848,79.04363 -56.87129,145.80872 -122.62263,187.93351 -20.12492,12.8934 -54.57781,27.36389 -78.54238,32.98844 -27.8476,6.53591 -10.44433,6.07838 -244,6.41466 l -212,0.30524 z M 543.5,747.33248 C 449.89655,739.57944 363.19566,680.95206 322.10018,597.62129 293.58944,539.80906 287.75094,478.0923 304.98596,416.7129 333.17102,316.33694 420.14231,240.9741 523.30122,227.53716 533.58771,226.1973 561.63243,226 741.79835,226 H 948.49427 L 883,291.5 817.50573,357 681.00286,357.0059 C 566.3735,357.01085 542.9777,357.24568 535,358.47139 c -54.04258,8.30323 -96.34594,47.55331 -108.75319,100.90385 -2.20442,9.47888 -2.5829,13.41795 -2.55819,26.62476 0.0344,18.40952 2.19167,30.41719 8.31057,46.25864 7.38067,19.10812 17.04331,33.71733 32.54504,49.20575 11.77961,11.76951 22.37737,19.58369 36.71397,27.07078 12.54167,6.54972 19.66117,9.2919 39.2418,15.11455 8.25,2.45329 22.2,6.6621 31,9.35291 14.67389,4.4869 61.86129,18.84001 102.5,31.17769 9.075,2.75512 24.5846,7.44851 34.46578,10.42975 9.88118,2.98123 19.85423,6.33462 22.16235,7.45196 6.96798,3.37314 13.01176,9.46106 16.57209,16.69311 2.8717,5.83324 3.27492,7.63811 3.28352,14.69736 0.008,6.78192 -0.44657,9.03693 -2.89215,14.33898 -4.04224,8.76365 -11.53703,15.49357 -20.25224,18.18543 -6.38035,1.97068 -8.7945,2.01874 -93.19469,1.85499 C 586.4901,747.73944 545.7,747.5147 543.5,747.33248 Z"
      id="s-path" />
  </g>
</svg>
