<?xml version="1.0" encoding="UTF-8" standalone="no"?>
<svg
   version="1.1"
   id="Layer_1"
   x="0px"
   y="0px"
   width="393.20773"
   viewBox="0 0 393.20773 419.14517"
   enable-background="new 0 0 1024 1024"
   xml:space="preserve"
   sodipodi:docname="ske-armored.svg"
   inkscape:version="1.4 (e7c3feb100, 2024-10-09)"
   height="419.14517"
   xmlns:inkscape="http://www.inkscape.org/namespaces/inkscape"
   xmlns:sodipodi="http://sodipodi.sourceforge.net/DTD/sodipodi-0.dtd"
   xmlns="http://www.w3.org/2000/svg"
   xmlns:svg="http://www.w3.org/2000/svg"><defs
   id="defs16" /><sodipodi:namedview
   id="namedview16"
   pagecolor="#505050"
   bordercolor="#ffffff"
   borderopacity="1"
   inkscape:showpageshadow="0"
   inkscape:pageopacity="0"
   inkscape:pagecheckerboard="1"
   inkscape:deskcolor="#505050"
   inkscape:zoom="0.56152344"
   inkscape:cx="192.33391"
   inkscape:cy="462.13565"
   inkscape:window-width="1366"
   inkscape:window-height="755"
   inkscape:window-x="0"
   inkscape:window-y="0"
   inkscape:window-maximized="1"
   inkscape:current-layer="Layer_1" />
















<g
   id="g20"
   transform="translate(-318.73987,-255.99634)"><path
     fill="#ecedeb"
     opacity="1"
     stroke="none"
     d="m 666.505,155.60725 c 0.0514,-16.73429 0.14429,-33.46864 0.1471,-50.20287 0.0133,-80.132229 0.0252,-160.264492 -0.0733,-240.39657 -0.005,-3.67304 0.94451,-5.62038 4.44702,-7.3616 9.44891,-4.69739 18.57374,-10.04632 27.83898,-15.11495 0.33889,-0.18534 0.80279,-0.14208 1.25599,0.25467 0.0476,56.22093 0.0476,111.981908 0.0476,167.766487 4.52404,0.586632 7.38452,-1.2286779 9.98458,-4.1323667 4.33783,-4.8442594 4.61441,-10.5147092 3.99561,-16.7425053 0.0688,-3.365372 0.0581,-6.47057 0.10882,-9.80176 0.0242,-1.77793 -0.0127,-3.329857 0.009,-5.001479 0.0179,-0.465701 -0.0225,-0.811677 -0.007,-1.419906 0.0358,-11.454776 0.015,-22.647266 0.0508,-34.06188 0.0237,-15.633372 -0.009,-31.044626 0.011,-46.7205 0.006,-3.16428 -0.041,-6.06392 -0.0289,-9.18219 0.0185,-1.25334 -0.0219,-2.28809 -0.006,-3.58196 0.0248,-2.97757 -0.009,-5.69596 0.0156,-8.66493 0.015,-2.12933 -0.0283,-4.0081 -0.0133,-6.12354 -0.0381,-8.18356 -0.13324,-16.13044 -0.22867,-24.07732 0.43355,0.0103 0.94878,-0.13072 1.28869,0.0529 10.04002,5.42455 20.04246,10.91928 30.1088,16.29428 1.6002,0.85449 1.99506,1.85953 1.99645,3.58957 0.0294,35.59841 -0.0404,71.198585 0.32744,106.794039 0.0968,9.364318 -1.07307,18.287175 -3.97355,27.1531635 -1.75081,5.35157146 -5.27252,9.367666 -8.85519,13.3055723 -1.35057,1.4844873 -1.51545,2.5273412 -1.19678,4.1602382 2.3371,11.975909 4.61434,23.963606 6.97396,35.935069 1.48433,7.530997 3.34997,14.997567 4.54196,22.572034 1.05748,6.720191 1.94345,13.54464 2.00447,20.331161 0.3204,35.692543 0.34712,71.387843 0.51517,107.081883 0.008,1.56585 -0.22318,2.63499 -1.81061,3.43679 -7.19784,3.63601 -14.32618,7.40959 -21.81428,11.31716 -1.48757,0.8186 -2.61681,1.50206 -3.79835,2.07842 -2.07328,1.01148 -4.17855,1.95743 -6.27042,2.93091 0.056,-0.11055 0.11188,-0.22104 0.20765,-0.77709 0.0608,-8.52498 0.12031,-16.60451 0.0962,-24.68382 -0.12025,-40.3966 -0.25089,-80.79319 -0.42863,-121.189559 -0.01,-2.182912 -0.13752,-4.474817 -0.80359,-6.523104 -1.4807,-4.553501 -3.28012,-9.007996 -5.07797,-13.450946 -0.52511,-1.297693 -1.27166,-2.674071 -2.31154,-3.540527 -0.79643,-0.663655 -2.38115,-1.039933 -3.30759,-0.70164 -0.90877,0.331884 -1.80923,1.645049 -2.03307,2.675283 -0.36077,1.660636 -0.19491,3.442446 -0.19657,5.173166 -0.0517,53.285957 -0.0958,106.572017 -0.14958,159.858027 -5.7e-4,0.79199 -0.10781,1.58392 -0.18357,2.62853 -4.58845,-2.6134 -8.8273,-5.02769 -13.21237,-7.56523 -1.42678,-0.71902 -2.73693,-1.25884 -3.98284,-1.91984 -5.18195,-2.74889 -10.34455,-5.53432 -15.51424,-8.3063 0,0 -0.13911,-0.21343 -0.29728,-0.50917 -0.23685,-8.19973 -0.31556,-16.10383 -0.39424,-24.00787 0.0354,-0.25846 0.0708,-0.51691 0.10503,-1.22236 -0.041,-2.19971 -0.0809,-3.95248 -0.12079,-5.70526 0.0357,-0.61816 0.0714,-1.23638 0.10817,-2.34692 -0.0319,-3.77935 -0.0648,-7.06639 -0.0977,-10.35337 z"
     id="path164"
     style="fill:#ff8c00;fill-opacity:1;stroke-width:0.577291"
     transform="translate(-193.22,435.517)" /><path
     fill="#ebedeb"
     opacity="1"
     stroke="none"
     d="m 596.59095,-63.863057 c -7.29655,3.913204 -14.39441,7.747239 -21.52225,11.524791 -1.43841,0.762382 -2.36522,1.490901 -2.35367,3.436725 0.11564,19.528859 0.10532,39.0584574 0.13699,58.587848 2.9e-4,0.1861822 0.0893,0.372255 0.19736,0.794797 26.25791,0 52.57688,0 79.1963,0 0,60.293762 0,120.351806 0,180.628466 -3.37897,-1.74977 -6.85709,-3.5123 -10.30061,-5.33994 -33.67782,-17.87445 -67.35508,-35.74993 -100.99442,-53.69653 -0.86956,-0.46391 -1.8522,-1.73458 -1.8615,-2.63851 -0.12371,-12.02209 -0.0826,-24.04591 -0.0826,-36.725251 26.67795,14.105191 53.06429,28.056181 79.72744,42.153581 0,-30.09495 0,-60.000139 0,-90.108306 -26.42891,0 -52.8451,0 -79.40412,0 -0.0542,-0.940119 -0.13407,-1.687423 -0.13499,-2.434784 -0.045,-36.7503896 -0.053,-73.500848 -0.18781,-110.25088 -0.009,-2.540872 0.70823,-3.855422 2.96711,-5.054578 30.01574,-15.934845 59.97647,-31.973282 89.94516,-47.996642 6.75333,-3.61078 13.48456,-7.26276 20.61501,-11.10532 0,1.27037 -10e-5,2.17714 0,3.08395 0.004,29.727617 -0.0181,59.455338 0.0688,89.182701 0.006,2.119952 -0.62832,3.146705 -2.48277,4.159609 -9.86018,5.385464 -19.61931,10.955887 -29.41716,16.455689 -0.48176,0.270398 -0.99842,0.478633 -1.83677,0.875982 0,-19.162735 0,-38.037772 0,-57.673534 -7.71267,4.204603 -14.90002,8.122847 -22.27546,12.140136 z"
     id="path165"
     style="fill:#ff8c00;fill-opacity:1;stroke-width:0.577291"
     transform="translate(-193.22,435.517)" /><path
     fill="#edeeec"
     opacity="1"
     stroke="none"
     d="m 800.42017,172.90844 c -0.66244,0.32092 -1.32483,0.64189 -2.32089,1.12774 -1.95291,1.07492 -3.57216,1.98507 -5.19146,2.89517 0,6e-5 0.0312,0.0364 -0.18191,0.0358 -6.224,3.27059 -12.23476,6.54175 -18.24558,9.81275 -0.30331,0.12255 -0.60656,0.24511 -1.23055,0.50611 -1.92844,1.07278 -3.53608,2.00689 -5.14367,2.94112 0,0 0.0202,0.0208 -0.19073,0.0352 -2.20168,1.05119 -4.19247,2.08829 -6.32209,3.19773 0,-109.086818 0,-217.858816 0,-326.96046 3.14335,1.59329 5.99973,3.04113 8.85599,4.48894 0,0 -0.006,0.0169 0.1251,0.16036 1.77494,0.97721 3.42189,1.81094 5.06879,2.64467 12.99714,7.00494 25.95063,14.09248 39.00178,20.99535 19.08335,10.093288 38.11837,20.292115 57.44066,29.910267 5.06244,2.51994 6.79091,5.252947 6.49805,10.790418 -0.51229,9.687463 -0.14288,19.421535 -0.14288,29.931875 -27.84963,-14.414243 -55.3754,-28.660835 -83.07711,-42.998518 0,29.378189 0,58.64754 0,88.082667 15.31517,0 30.56912,0 46.04803,0 0,11.360384 0,22.662622 0,34.114754 -15.21203,0 -30.48225,0 -46.00392,0 0,30.969833 0,61.792977 0,92.906037 27.56558,-14.56218 55.09325,-29.10438 83.02959,-43.862367 0,12.412107 0.0306,24.384147 -0.0737,36.354977 -0.006,0.74228 -0.91887,1.76721 -1.67212,2.16935 -14.14358,7.5531 -28.32693,15.03186 -42.80355,22.69349 -0.47973,0.31249 -0.65789,0.45751 -0.83592,0.60252 -0.39262,0.17839 -0.78518,0.35671 -1.49946,0.67347 -10.59202,5.67576 -20.86221,11.21313 -31.13243,16.75051 z"
     id="path166"
     style="fill:#ff8c00;fill-opacity:1;stroke-width:0.577291"
     transform="translate(-193.22,435.517)" /><path
     fill="#000000"
     opacity="1"
     stroke="none"
     d="m 474.92725,668.21582 c -38.33957,-21.96606 -76.35398,-43.75446 -114.35074,-65.57367 -12.31836,-7.07361 -21.32694,-16.96448 -27.98242,-29.71588 -5.48633,-10.51147 -11.93113,-20.41919 -13.27835,-32.53052 -0.29365,-2.63971 -0.57017,-5.29986 -0.57129,-7.95074 -0.0186,-44.16272 0.0263,-88.32547 0.0131,-132.48819 -0.004,-13.0513 3.52084,-25.00904 11.04523,-35.66785 2.45104,-3.47208 3.57366,-7.50455 5.58145,-11.13467 5.74109,-10.38022 14.33065,-17.84787 24.49362,-23.65424 38.04581,-21.73678 76.06897,-43.51355 114.17114,-65.15112 11.41956,-6.48499 23.63464,-9.74521 36.93381,-7.78806 2.60882,0.38391 5.36896,0.4195 7.97394,0.036 14.03192,-2.06611 26.72229,1.70386 38.74029,8.5676 37.90265,21.64706 75.82666,43.25711 113.67395,65.00055 11.84497,6.80493 21.04486,16.12475 26.60779,28.8992 2.57782,5.91971 6.74579,11.00809 9.26752,17.0794 5.10522,12.29105 4.40026,25.21534 4.51599,37.94526 0.33954,37.32678 0.0989,74.65853 0.14795,111.98831 0.0206,15.66998 -4.51972,29.63586 -11.83112,43.6972 -9.84473,18.93341 -25.41406,30.11029 -43.09454,40.05066 -32.52185,18.28449 -64.818,36.97559 -97.04737,55.77301 -13.6571,7.96527 -27.87853,11.55261 -43.52282,8.16608 -1.55194,-0.33594 -2.94629,-0.0242 -4.41852,0.27429 -12.93439,2.62238 -25.15259,0.52545 -37.0686,-5.82257 M 550.08954,278.4704 c -6.95508,-3.94412 -13.88996,-7.92441 -20.87024,-11.82343 -9.13922,-5.10495 -18.38898,-5.18533 -27.67169,-0.37811 -3.5495,1.8382 -7.10504,3.67291 -10.57737,5.65048 -32.71163,18.63022 -65.46398,37.1901 -98.08093,55.98483 -16.72635,9.63819 -33.97503,18.45145 -49.46072,30.12607 -7.10047,5.35303 -10.54541,12.33503 -10.51441,21.48252 0.19321,56.9931 0.13892,113.987 0.19523,170.98065 0.003,3.1532 0.044,6.29553 0.77826,9.43133 2.17138,9.27247 8.86679,14.69196 16.43978,19.16016 18.50574,10.91858 37.0853,21.71558 55.74695,32.3656 30.81674,17.58667 61.75021,34.96857 92.57453,52.54205 11.52468,6.57044 22.80719,6.16938 34.14373,-0.31097 21.98432,-12.56696 44.01117,-25.05982 65.97156,-37.66846 26.58393,-15.26336 53.10736,-30.6322 79.67682,-45.92102 13.26623,-7.63391 20.4779,-18.47034 19.44446,-34.35345 -0.56146,-8.62934 -0.0991,-17.32508 -0.10224,-25.99091 -0.0165,-46.16183 -0.0899,-92.32373 -0.0112,-138.48541 0.0189,-11.107 -4.24072,-19.63913 -13.73962,-25.48795 -1.41821,-0.87323 -2.75836,-1.87784 -4.20044,-2.70715 C 636.79849,328.31949 593.75668,303.58621 550.08957,278.4704 M 539.3118,265.4509 c 48.04516,27.57202 96.09039,55.14401 145.22174,83.33938 -5.1532,-6.46374 -10.58527,-10.60519 -16.66986,-14.04187 -37.69885,-21.29278 -75.46454,-42.4682 -112.79621,-64.40567 -5.63556,-3.31167 -11.47644,-6.36041 -19.53613,-7.04205 1.84839,1.02579 2.55036,1.41531 3.78046,2.15021 M 413.33865,626.07489 c 21.78366,12.52771 43.55912,25.0697 65.3577,37.57141 4.54205,2.60498 9.31683,4.56287 16.02411,4.7663 -49.2269,-27.97876 -97.28855,-55.29523 -145.35019,-82.6117 -0.21942,0.35779 -0.43884,0.71552 -0.65826,1.07325 19.49749,15.87725 42.68969,25.84497 64.62664,39.20074 M 401.10898,316.56018 c 30.77304,-17.48123 61.54608,-34.96246 92.31912,-52.44369 -5.05908,-0.12266 -9.422,1.43823 -13.4765,3.74786 -39.89386,22.72513 -79.77576,45.47134 -119.62857,68.2684 -5.54807,3.17371 -10.53516,7.08649 -14.32132,12.27689 18.19311,-10.51248 36.33447,-20.99509 55.10727,-31.84946 m 173.54263,333.53613 c 31.6557,-18.13501 63.30933,-36.27374 94.96918,-54.40149 5.32672,-3.04992 9.81427,-7.07251 14.69031,-12.16107 -49.61377,28.37482 -98.35126,56.24854 -147.08881,84.12226 4.86688,0.18988 9.0816,-1.28351 12.98145,-3.4654 7.99481,-4.47296 15.87927,-9.14312 24.44787,-14.0943 M 324.35211,495.49988 c 0.5629,17.04651 -1.44555,34.21747 2.79129,51.1015 0,-54.54422 0,-109.08844 0,-163.63263 -0.44037,-0.008 -0.88073,-0.016 -1.3211,-0.024 -2.87427,37.13105 -0.84406,74.37311 -1.47019,112.55509 m 380.75,44.78149 c 0.24152,-2.48327 0.69104,-4.96631 0.69367,-7.44989 0.0474,-44.82635 0.0463,-89.65274 0.0372,-134.47916 -9.2e-4,-4.5769 -0.70557,-9.05731 -1.79682,-13.39645 0,52.84549 0,105.69437 0,158.54328 0.22217,-3.7e-4 0.4444,-6.8e-4 0.66657,-9.8e-4 0.0924,-0.82709 0.18487,-1.65418 0.39941,-3.2168 z"
     id="path3"
     style="fill:#2e8b57;fill-opacity:1" /></g></svg>
