<?xml version="1.0" encoding="UTF-8" standalone="no"?>
<svg
   version="1.1"
   id="Layer_1"
   x="0px"
   y="0px"
   width="955.16144"
   viewBox="0 0 955.16144 303.20877"
   enable-background="new 0 0 2048 2048"
   xml:space="preserve"
   sodipodi:docname="ske.svg"
   height="303.20877"
   inkscape:version="1.4 (e7c3feb100, 2024-10-09)"
   xmlns:inkscape="http://www.inkscape.org/namespaces/inkscape"
   xmlns:sodipodi="http://sodipodi.sourceforge.net/DTD/sodipodi-0.dtd"
   xmlns="http://www.w3.org/2000/svg"
   xmlns:svg="http://www.w3.org/2000/svg"><defs
   id="defs57" /><sodipodi:namedview
   id="namedview57"
   pagecolor="#505050"
   bordercolor="#ffffff"
   borderopacity="1"
   inkscape:showpageshadow="0"
   inkscape:pageopacity="0"
   inkscape:pagecheckerboard="1"
   inkscape:deskcolor="#505050"
   inkscape:zoom="0.19852852"
   inkscape:cx="256.89005"
   inkscape:cy="183.85268"
   inkscape:window-width="1203"
   inkscape:window-height="755"
   inkscape:window-x="0"
   inkscape:window-y="0"
   inkscape:window-maximized="1"
   inkscape:current-layer="g1" />
























































<g
   id="g1"><path
     fill="#e1e3e2"
     opacity="1"
     stroke="none"
     d="m 625.71854,176.25731 c -0.054,-2.3855 -0.108,-4.771 0.2884,-7.7489 0.8509,-2.736 1.2512,-4.8796 1.6645,-7.0928 0.5181,0.8147 0.9924,1.5607 1.4668,2.3067 0.5108,-0.029 1.0215,-0.058 1.5322,-0.086 0,-14.1971 0,-28.3942 0,-43.13657 2.8775,1.75518 4.5194,2.78771 6.1921,3.76806 1.5913,0.93274 3.4681,1.54334 4.7667,2.77344 2.1699,2.05542 4.0591,1.94836 6.6927,0.80713 4.5159,-1.95679 9.0537,-3.49512 14.2809,-1.22003 1.8604,0.80975 5.3053,-0.33448 7.2258,-1.7074 3.7828,-2.70416 6.9662,-4.76953 10.1916,0.41235 71.7583,0 143.5166,0 216.1604,0 -3.3908,3.47937 -6.057,6.29077 -8.8037,9.0213 -13.4685,13.38932 -27.0458,26.67092 -40.3783,40.19412 -3.272,3.3188 -6.5878,4.7325 -11.3274,4.7106 -49.1498,-0.2272 -98.3008,-0.2168 -147.4514,-0.2718 -2.6347,0 -5.2693,-3e-4 -8.6066,-3e-4 1.7755,15.3191 -3.1411,30.6151 3.5292,45.812 -2.0409,0.4158 -5.3987,0.4019 -5.4998,-0.1793 -0.7605,-4.3668 -2.3418,-9.436 -0.8435,-13.1454 2.0587,-5.0968 -0.4651,-6.3041 -3.6842,-7.6546 -5.3632,-2.2503 -8.8041,-8.5248 -15.7177,-7.5104 -0.2601,0.038 -0.66,-0.2334 -0.8526,-0.4744 -5.444,-6.8141 -13.0753,-4.1053 -19.9351,-4.3653 -1.2705,-0.048 -3.3973,1.7507 -3.8037,3.0972 -2.2611,7.4905 -3.1719,15.0679 -2.17,23.0317 0.5982,4.7553 -0.8251,9.7651 -1.3398,14.6605 -1.1481,-5.6801 -2.2962,-11.3602 -3.057,-17.7089 0.2537,-2.4116 0.1198,-4.1545 0.3283,-6.075 3.4213,-5.9275 3.2064,-7.6403 -0.7799,-9.1246 -0.072,-1.7545 -0.1446,-3.5089 0.3117,-5.7483 0.8368,-5.9119 1.1618,-11.3387 1.3752,-16.7696 0.01,-0.1685 -1.1444,-0.3825 -1.7558,-0.5752 z"
     id="path2"
     style="fill:#daa520;fill-opacity:1" /><path
     fill="#e1e3e2"
     opacity="1"
     stroke="none"
     d="m 240.15644,229.28991 c 2.29822,-7.6751 4.04235,-15.335 2.24963,-23.4757 -3.46014,-15.7125 -16.05231,-26.6193 -32.15143,-26.7522 -33.29992,-0.2752 -66.60376,-0.4398 -99.90356,-0.2387 -17.726994,0.1072 -34.363044,-3.3938 -49.683054,-12.4112 -3.85437,-2.2688 -7.43121,-5.0094 -11.04614,-8.0243 0.19184,-1.9667 0.61133,-3.5032 0.34125,-4.9071 -1.12207,-5.8329 -6.85144,-9.1839 -7.6543,-15.7838 -0.50128,-4.12027 0.31854,-4.58053 3.21997,-5.69278 9.2005,-3.52697 18.23914,-0.52569 27.38062,0.16285 3.46075,0.26062 8.97931,-0.0983 10.22705,-2.17627 3.70471,-6.16919 7.99512,-4.57654 13.07617,-3.38471 1.8064,0.42371 4.014954,-0.867 6.039924,-1.37506 35.93927,0.0136 71.87878,0.1109 107.81781,0.0196 45.03479,-0.1145 78.48706,33.63668 85.12402,72.44138 1.16657,6.8208 0.90857,13.8852 0.92743,20.994 -0.75653,-1.1896 -1.13208,-2.536 -1.2627,-3.0042 -2.95666,1.1636 -6.28204,3.7699 -8.0932,2.966 -9.00207,-3.9968 -18.50305,-5.0379 -28.04126,-5.9025 -2.14349,-0.1943 -5.13269,0.8353 -6.54827,2.384 -3.05988,3.3477 -5.24195,7.4812 -8.01825,11.1136 -0.982,1.2846 -2.64801,2.0465 -4.00171,3.0471 z"
     id="path3"
     style="fill:#d2691e;fill-opacity:1" /><path
     fill="#f6f8f7"
     opacity="1"
     stroke="none"
     d="m 674.13224,13.034956 c 14.5813,-8.3791501 30.5265,-12.44361011 47.0984,-12.47925011 76.3797,-0.16412 152.7603,0.14441 229.1405,0.29925 1.586,0.003 3.1718,0.19587001 4.7144,0.29725001 -8.9096,9.0618301 -17.64,17.9413401 -27.0396,26.9069801 -8.9964,-1.02619 -13.4648,2.20123 -15.0393,10.11261 -0.3506,1.76227 -1.6567,3.33435 -2.7585,5.44525 -1.49,-1.88428 -2.4413,-3.08734 -3.7376,-4.72656 -3.2054,6.97711 -8.4321,7.03082 -14.3922,5.40948 -11.8816,-3.23199 -23.8988,-2.2174 -35.996,-1.33984 -8.3404,0.60504 -16.7778,-0.14594 -25.1723,-0.25562 -3.8025,-0.0496 -7.606,-0.0245 -11.4091,-0.0137 -6.1202,0.0174 -12.2478,0.25141 -18.3586,0.0256 -7.1156,-0.26312 -14.2117,-1.01818 -21.3256,-1.37329 -4.0776,-0.20355 -8.1739,-0.0637 -12.2613,-0.029 -3.4933,0.0297 -6.9872,0.21991 -10.4783,0.16876 -2.5525,-0.0374 -5.0986,-0.3916 -7.6516,-0.53088 -2.6168,-0.14288 -5.2379,-0.2373 -7.8583,-0.2782 -3.2788,-0.0512 -6.5613,0.0528 -9.8378,-0.0483 -11.4433,-0.35284 -22.8906,-1.32238 -34.1966,1.66199 -5.8856,1.55359 -11.8563,3.5669 -17.8401,3.75739 -6.6721,0.21258 -13.4026,-1.40821 -19.9674,-2.21381 0.3457,-2.94379 0.4977,-4.4848 0.7132,-6.01678 0.2965,-2.10547 0.1403,-4.47608 1.0953,-6.23517 1.1357,-2.09229 3.0532,-3.90418 4.9788,-5.38727 2.3971,-1.84595 3.3617,-3.51666 1.2355,-6.18665 -0.5508,-0.69177 -0.4562,-1.8974 -0.6579,-2.867 0,0 0.067,0.10077 0.4151,0.0931 3.2776,-0.13855 6.1633,-0.33393 6.5869,-4.19635 z"
     id="path4"
     style="fill:#556b2f;fill-opacity:1" /><path
     fill="#f6f8f7"
     opacity="1"
     stroke="none"
     d="m 30.460146,40.278056 c 6.69391,-10.974 15.91522,-19.3551 27.36596,-25.91894 0.75202,1.60498 0.89161,3.05175 1.1059,5.27301 2.50696,-1.59442 4.40955,-2.80451 6.79785,-4.32355 -2.04113,-1.4444 -3.31933,-2.34888 -4.59753,-3.25342 13.12707,-7.6224401 27.34894,-11.65472011 42.457944,-11.68964011 64.74628,-0.14953 129.49311,-0.0638 195.11213,-0.0638 -1.46033,1.68884001 -2.31983,2.81354001 -3.30982,3.80829001 -16.44208,16.5214901 -32.8822,33.0450401 -49.40484,49.4856601 -0.9123,0.90771 -2.52137,1.47912 -3.83942,1.54571 -3.65247,0.18427 -7.32263,0.0187 -11.44013,-0.48517 -0.23535,-2.22711 -0.0163,-3.97772 0.29835,-6.4934 -3.71277,0 -7.15217,0.63556 -10.26313,-0.1062 -16.61383,-3.96131 -33.57355,-3.35413 -50.37713,-3.55897 -16.77601,-0.20452 -33.63233,-1.87414 -50.39399,0.73578 -1.77856,0.27686 -3.66223,0.0591 -5.47839,-0.11914 -5.72235,-0.56176 -11.44263,-1.15814 -17.150024,-1.85333 -3.08558,-0.37585 -6.19086,-0.78741 -9.20142,-1.53058 -3.72729,-0.92004 -6.05731,-0.18524 -7.03833,3.92969 -0.60364,2.53192 -1.95007,4.88666 -3.28156,8.08673 2.63831,-0.49933 5.29542,-1.68896 7.66846,-1.2699 2.69873,0.47651 5.1438,2.39026 7.6991,3.67926 -6.01435,2.92084 -12.55072,5.10773 -16.45459,11.2483 -0.63312,-3.63965 -0.93091,-7.06074 -1.2287,-10.48188 -1.15607,-4.03876 -4.62305,-4.9544 -8.95374,-4.73474 -3.7575,0.19049 -7.61041,-0.96771 -11.32543,-0.58978 -6.19208,0.63 -10.22858,-7.90332 -17.0572,-3.72186 -0.003,0.002 -0.31323,-0.49927 0.20166,0.32269 0.91999,-3.98407 1.63733,-7.09082 2.62488,-11.36743 -4.68768,1.53332 -7.6123,2.48993 -10.53686,3.44659 z"
     id="path5"
     style="fill:#708238;fill-opacity:1" /><path
     fill="#c7c7c7"
     opacity="1"
     stroke="none"
     d="m 243.23017,295.33031 c -10.46448,5.1738 -21.66565,7.6422 -33.20722,7.6547 -69.28106,0.075 -138.562314,-0.079 -207.843504,-0.1689 -0.42975,-5e-4 -0.85926,-0.1762 -2.1794500000001,-0.4652 C 16.803646,285.38691 33.157286,268.87731 50.046016,252.50491 c 2.57984,1.4426 4.61206,2.7681 6.67231,4.0488 3.37359,2.097 6.2799,3.4223 9.0429,-1.3865 0.79053,-1.376 5.29639,-2.2112 6.9068,-1.2652 10.95758,6.4368 22.53235,0.7408 33.669934,2.2401 0.52526,0.071 1.117,-0.6252 1.72296,-0.8308 2.08563,-0.7081 4.18731,-1.9249 6.28997,-1.9397 20.2942,-0.144 40.5904,-0.1507 60.8844,0.01 2.50953,0.02 5.04926,1.1202 7.50629,1.9288 6.46875,2.129 12.81775,4.9056 20.15729,3.6044 -0.63513,-1.9259 -1.07465,-3.2587 -1.66547,-5.0503 3.20056,0 5.93213,0 9.00006,0 -3.60461,5.9893 -1.98364,9.4725 4.55335,11.102 0.16095,0.04 0.32403,0.083 0.47522,0.1498 10.22174,4.5128 21.85882,2.7107 32.06848,7.1863 1.75116,0.7677 4.18945,1.8325 4.64416,3.2824 0.8025,2.5589 0.63245,5.3151 -2.49084,7.2975 -4.36322,2.7694 -7.45233,6.6566 -6.25366,12.4484 z"
     id="path6"
     style="fill:#8b5a2b;fill-opacity:1" /><path
     fill="#d1d2d1"
     opacity="1"
     stroke="none"
     d="m 658.14774,278.31921 c -8.8226,-6.8855 -15.2237,-15.7573 -20.6308,-25.89 -0.7785,-4.2147 1.2984,-9.5166 -5.1267,-10.1393 -0.3976,-1.1025 -0.7952,-2.2051 -0.9085,-3.9114 2.5582,-4.6145 4.8123,-8.6369 7.1301,-12.6222 0.3162,-0.5436 0.8909,-1.1838 1.4477,-1.3027 6.2256,-1.3292 12.8354,-4.458 18.6189,-3.3451 7.201,1.3859 14.813,5.1146 20.179,10.0709 3.9435,3.6426 6.7107,4.0922 10.9528,2.9577 9.891,10.6836 22.0975,15.3342 36.6615,15.3195 72.9904,-0.074 145.9812,0.115 218.9718,0.2107 2.9241,0 5.8483,4e-4 9.7179,4e-4 -14.2712,14.4258 -27.6584,27.958 -41.6602,41.4645 -3.1679,-2.1397 -5.9354,-4.0448 -8.2355,-6.4054 -7.7166,-7.9196 -17.7065,-7.7609 -27.5843,-8.0911 -4.7566,-0.159 -9.5206,-0.1358 -14.273,-0.3662 -2.7953,-0.1352 -5.5671,-0.7714 -8.362,-0.8935 -7.3837,-0.3233 -14.7801,-0.3714 -22.1598,-0.7558 -5.5023,-0.2865 -10.979,-1.1955 -16.4801,-1.3436 -7.5736,-0.2037 -15.1605,0.1514 -22.7397,0.075 -6.7678,-0.068 -13.6592,-1.3111 -20.2703,-0.3992 -10.2369,1.412 -20.2311,2.5519 -30.3763,-0.3822 -1.8586,-0.5376 -4.1409,0.4856 -6.2383,0.6613 -7.0236,0.5883 -14.0447,1.3952 -21.0809,1.5824 -5.3515,0.1423 -10.7225,-0.7381 -16.0887,-0.7965 -9.7273,-0.1061 -19.4767,0.4418 -29.1781,-0.05 -4.6751,-0.237 -9.3757,-2.5676 -11.3756,4.0289 -0.055,0.1827 -0.5964,0.2183 -0.9109,0.3226 m 273.638,-11.9258 c -0.3333,0.7213 -0.6665,1.4426 -0.9999,2.1638 0.7443,-0.092 1.4884,-0.1852 2.2327,-0.2777 -0.1933,-0.639 -0.3864,-1.2779 -1.2328,-1.8861 m -2.408,6.5043 c -0.085,-0.7634 -0.1702,-1.5268 -0.2552,-2.2902 -0.4377,0.114 -0.8752,0.2279 -1.3128,0.3418 0.3075,0.7018 0.6151,1.4037 1.568,1.9484 z"
     id="path7"
     style="fill:#a0522d;fill-opacity:1" /><path
     fill="#e1e3e2"
     opacity="1"
     stroke="none"
     d="m 381.67701,138.23161 c 0.0704,1.4224 0.1408,2.8448 -0.0916,4.7199 -0.21094,0.7362 -0.11902,1.0197 -0.0272,1.3031 0.29468,0.7067 0.5893,1.4134 1.50116,2.3418 3.74518,2.1556 6.49982,3.2694 9.85809,-0.063 1.29792,-1.2879 4.94526,-1.4448 6.89801,-0.6268 9.64637,4.041 19.10505,5.6273 28.7884,0.28 1.10119,-0.608 2.52563,-0.67 3.81665,-0.8875 4.05609,-0.6837 8.15356,-1.9953 12.17211,-1.7961 4.48475,0.2225 9.62598,0.7421 13.17389,3.0999 5.13257,3.4109 9.6668,4.9884 15.3278,2.2174 9.405,9.2445 18.81,18.489 27.9582,28.0769 -1.5467,0.655 -2.8237,1.0452 -4.1295,1.2632 -3.7332,0.623 -4.7251,2.2096 -2.0499,5.3115 0.4791,0.5556 0.6999,1.3338 1.04,2.0092 -0.3891,0.4199 -0.7783,0.8399 -1.1676,1.2599 -2.4036,-2.0042 -4.8071,-4.0083 -7.6006,-6.3376 -3.8224,3.5457 -7.9407,7.3658 -11.2176,10.4053 -4.5644,-0.884 -8.8498,-2.5796 -12.93838,-2.193 -2.60602,0.2466 -5.12824,3.3886 -7.21173,5.6677 -0.48975,0.5357 0.54486,3.2288 1.56219,4.2438 4.05792,4.049 5.80432,8.6402 4.40723,14.2898 -7.87818,-7.8387 -15.81867,-15.6163 -23.60675,-23.5436 -3.59369,-3.6578 -6.88953,-7.6084 -9.46259,-10.4716 -13.2102,12.7004 -25.49939,24.5155 -38.10559,36.0926 -0.41205,-4.8535 -2.79492,-9.4051 -0.53937,-14.1345 0.32166,-0.6743 -0.45331,-2.2859 -1.18213,-2.9769 -3.63568,-3.4471 -7.38617,-6.7769 -11.1712,-10.0616 -4.60034,-3.992 -9.85938,-3.7793 -15.12781,-2.3235 -5.11804,1.4144 -10.94623,1.4447 -16.25482,0.6661 -5.90381,-0.8658 -10.45837,-4.2978 -10.81122,-11.2605 -0.09,-1.777 -0.73529,-3.5965 -1.46948,-5.2431 -0.42499,-0.9532 -1.53638,-1.6003 -2.34045,-2.3868 -1.37653,2.8097 -2.43067,4.9612 -3.48481,7.1128 -0.0157,-23.0284 -0.0315,-46.05685 0.37665,-69.61599 3.47003,-3.41779 4.90253,-1.9104 5.74725,1.38794 1.46882,5.73468 4.60834,10.00262 9.98035,12.93249 2.47217,1.34821 4.02997,4.28998 6.23126,6.2525 1.09644,0.97767 2.68476,1.88031 4.0918,1.9469 4.97333,0.23548 9.96533,0.0369 14.94843,0.11554 4.22106,0.0665 7.41925,1.31793 7.86492,6.37604 0.11243,1.27673 1.79108,2.41548 2.85181,3.79368 0.26325,0.422 0.49085,0.5438 0.9408,0.5846 0.15606,0.043 0.45331,0.1714 0.45331,0.1714 z"
     id="path8"
     style="fill:#daa520;fill-opacity:1" /><path
     fill="#eef0f0"
     opacity="1"
     stroke="none"
     d="m 666.80844,17.252486 c 0.5235,0.85534 0.4289,2.06097 0.9797,2.75274 2.1262,2.66999 1.1616,4.3407 -1.2355,6.18665 -1.9256,1.48309 -3.8431,3.29498 -4.9788,5.38727 -0.955,1.75909 -0.7988,4.1297 -1.0953,6.23517 -0.2155,1.53198 -0.3675,3.07299 -0.7132,6.01678 6.5648,0.8056 13.2953,2.42639 19.9674,2.21381 5.9838,-0.19049 11.9545,-2.2038 17.8401,-3.75739 11.306,-2.98437 22.7533,-2.01483 34.1966,-1.66199 3.2765,0.10108 6.559,-0.003 9.8378,0.0483 2.6204,0.0409 5.2415,0.13532 7.8583,0.2782 2.553,0.13928 5.0991,0.49347 7.6516,0.53088 3.4911,0.0512 6.985,-0.13909 10.4783,-0.16876 4.0874,-0.0347 8.1837,-0.17456 12.2613,0.029 7.1139,0.35511 14.21,1.11017 21.3256,1.37329 6.1108,0.22584 12.2384,-0.008 18.3586,-0.0256 3.8031,-0.0108 7.6066,-0.0359 11.4091,0.0137 8.3945,0.10968 16.8319,0.86066 25.1723,0.25562 12.0972,-0.87756 24.1144,-1.89215 35.996,1.33984 5.9601,1.62134 11.1868,1.56763 14.3922,-5.40948 1.2963,1.63922 2.2476,2.84228 3.7376,4.72656 1.1018,-2.1109 2.4079,-3.68298 2.7585,-5.44525 1.5745,-7.91138 6.0429,-11.1388 14.7277,-9.98053 -8.0158,8.59192 -16.3259,17.20172 -24.841,25.60394 -1.082,1.06757 -3.2348,1.47016 -4.8924,1.47217 -33.9507,0.0413 -67.9016,-0.0204 -102.4513,-0.5155 -1.1456,-0.77204 -1.69,-1.36194 -2.2399,-1.36737 -7.7984,-0.0775 -15.5985,-0.13019 -23.3957,-0.0185 -0.898,0.0129 -1.7813,1.04792 -2.6714,1.60895 -14.4846,0.0372 -28.9694,0.0805 -43.454,0.11053 -27.2616,0.0566 -44.8706,18.13739 -44.3262,45.422434 0.1593,7.98871 0.081,15.98224 0.3343,24.39929 -3.0019,-4.7561 -6.1853,-2.69073 -9.9681,0.0134 -1.9205,1.37292 -5.3654,2.51715 -7.2258,1.7074 -5.2272,-2.27509 -9.765,-0.73676 -14.2809,1.22003 -2.6336,1.14123 -4.5228,1.24829 -6.6927,-0.80713 -1.2986,-1.2301 -3.1754,-1.8407 -4.7667,-2.77344 -1.6727,-0.98035 -3.3146,-2.01288 -6.1921,-3.76806 0,14.74237 0,28.93947 0,43.13657 -0.5107,0.029 -1.0214,0.058 -1.5322,0.086 -0.4744,-0.746 -0.9487,-1.492 -1.4668,-2.3067 -0.4133,2.2132 -0.8136,4.3568 -1.5155,6.6693 -0.2606,-21.0562 -0.3843,-42.28341 -0.1064,-63.5054 0.1298,-9.920164 1.0356,-19.830264 2.1114,-29.769354 0.5216,3.40412 0.5216,6.83265 0.5216,10.2251 2.7565,-1.22632 4.7577,-6.71307 3.4468,-10.92157 -0.3687,-1.18371 -2.2559,-1.89447 -3.4465,-2.8222 1.9021,-5.56714 3.804,-11.13428 6.3757,-16.74719 3.3708,-0.48377 6.5626,-0.16407 8.6661,-1.52564 3.7758,-2.44391 6.7702,-6.05871 10.3304,-8.88245 3.2723,-2.59539 2.5747,-4.85284 0.1377,-7.40344 -1.4125,-1.47821 -2.6882,-3.08679 -4.0254,-4.63672 5.4397,-4.90979 10.8794,-9.81958 16.6411,-14.84356 m -39.0845,135.592324 c 0,0 -0.041,-0.08 0,0 z"
     id="path9"
     style="fill:#708238;fill-opacity:1" /><path
     fill="#c7c7c7"
     opacity="1"
     stroke="none"
     d="m 658.29714,278.62961 c 0.1651,-0.4147 0.706,-0.4503 0.7615,-0.633 1.9999,-6.5965 6.7005,-4.2659 11.3756,-4.0289 9.7014,0.4917 19.4508,-0.056 29.1781,0.05 5.3662,0.058 10.7372,0.9388 16.0887,0.7965 7.0362,-0.1872 14.0573,-0.9941 21.0809,-1.5824 2.0974,-0.1757 4.3797,-1.1989 6.2383,-0.6613 10.1452,2.9341 20.1394,1.7942 30.3763,0.3822 6.6111,-0.9119 13.5025,0.3311 20.2703,0.3992 7.5792,0.076 15.1661,-0.2789 22.7397,-0.075 5.5011,0.1481 10.9778,1.0571 16.4801,1.3436 7.3797,0.3844 14.7761,0.4325 22.1598,0.7558 2.7949,0.1221 5.5667,0.7583 8.362,0.8935 4.7524,0.2304 9.5164,0.2072 14.273,0.3662 9.8778,0.3302 19.8677,0.1715 27.5843,8.0911 2.3001,2.3606 5.0676,4.2657 7.9377,6.5397 0.1478,0.442 0.024,0.7659 -0.1964,0.9995 -10.3971,11.0346 -10.398,10.9642 -25.5424,10.9353 -54.4073,-0.1039 -108.8147,-0.1629 -163.222,-0.2262 -23.5833,-0.028 -44.86,-6.5684 -62.9683,-22.1554 -0.8513,-0.7328 -1.8811,-1.258 -2.9772,-2.1901 z"
     id="path10"
     style="fill:#8b5a2b;fill-opacity:1" /><path
     fill="#f6f8f7"
     opacity="1"
     stroke="none"
     d="m 503.11234,27.784526 c 5.1225,-5.35577 10.8611,-10.25635 15.2287,-16.16962 7.3313,-9.9255301 16.6218,-12.11316011 28.4676,-11.52722011 19.7139,0.97510001 39.5109,0.26569 60.725,0.26569 -31.1011,30.66815011 -61.2826,60.42962011 -91.8112,89.92981011 2.866,-6.29676 -3.8034,-9.91516 -4.0869,-15.13019 -0.018,-0.336 -1.7151,-0.55627 -2.6153,-0.87476 -1.2098,-0.42803 -2.3971,-0.9187 -3.6064,-1.3482 -2.5172,-0.89411 -4.9918,-1.98517 -7.5793,-2.58228 -2.3817,-0.54956 -4.894,-0.80285 -7.3381,-0.74298 -3.0445,0.0745 -6.073,0.76996 -9.1184,0.86133 -1.3508,0.0404 -3.3461,-0.34705 -3.9272,-1.25671 -0.6651,-1.04102 -0.6588,-3.75116 0.054,-4.22126 3.4038,-2.24371 3.0619,-5.03576 2.4107,-7.43182 -1.9918,-1.00067 -3.3562,-1.6861 -4.7205,-2.37152 9.0524,-9.12512 18.1049,-18.25024 27.5126,-26.96118 0.116,2.37896 -0.1233,4.34375 -0.4981,7.42181 4.0757,-3.30377 4.9903,-5.57458 0.9026,-7.8609 m -20.8388,27.21759 c 0.7905,-0.12622 1.5809,-0.25238 2.3714,-0.3786 -0.1364,-0.41852 -0.2727,-0.8371 -0.4091,-1.25568 -0.7993,0.40339 -1.5984,0.80677 -1.9623,1.63428 z"
     id="path11"
     style="fill:#556b2f;fill-opacity:1" /><path
     fill="#d1d2d1"
     opacity="1"
     stroke="none"
     d="m 243.58905,295.29751 c -1.55755,-5.759 1.53156,-9.6462 5.89478,-12.4156 3.12329,-1.9824 3.29334,-4.7386 2.49084,-7.2975 -0.45471,-1.4499 -2.893,-2.5147 -4.64416,-3.2824 -10.20966,-4.4756 -21.84674,-2.6735 -32.06848,-7.1863 -0.15119,-0.067 -0.31427,-0.1096 -0.47522,-0.1498 -6.53699,-1.6295 -8.15796,-5.1127 -4.55335,-11.102 -3.06793,0 -5.7995,0 -9.00006,0 0.59082,1.7916 1.03034,3.1244 1.66547,5.0503 -7.33954,1.3012 -13.68854,-1.4754 -20.15729,-3.6044 -2.45703,-0.8086 -4.99676,-1.9091 -7.50629,-1.9288 -20.294,-0.1601 -40.5902,-0.1534 -60.8844,-0.01 -2.10266,0.015 -4.20434,1.2316 -6.28997,1.9397 -0.60596,0.2056 -1.1977,0.9014 -1.72296,0.8308 -11.137584,-1.4993 -22.712354,4.1967 -33.669934,-2.2401 -1.61041,-0.946 -6.11627,-0.1108 -6.9068,1.2652 -2.763,4.8088 -5.66931,3.4835 -9.0429,1.3865 -2.06025,-1.2807 -4.09247,-2.6062 -6.36817,-4.1941 1.68488,-1.2294 3.59998,-3.0009 5.51666,-3.0027 49.649664,-0.046 99.300544,-0.059 148.948674,0.2882 15.78138,0.1104 27.05018,-6.6074 35.0611,-20.1733 1.63355,-1.1825 3.29956,-1.9444 4.28156,-3.229 2.7763,-3.6324 4.95837,-7.7659 8.01825,-11.1136 1.41558,-1.5487 4.40478,-2.5783 6.54827,-2.384 9.53821,0.8646 19.03919,1.9057 28.04126,5.9025 1.81116,0.8039 5.13654,-1.8024 8.0932,-2.966 0.13062,0.4682 0.50617,1.8146 1.15033,3.3922 0.29822,0.6803 0.32782,1.1292 -0.0927,1.9698 -2.33831,3.571 -7.21679,4.8124 -6.38275,9.7867 0.40582,2.4206 0.31793,4.926 0.75879,7.3374 0.25989,1.421 1.11737,2.7326 1.70605,4.0934 -8.45867,24.5199 -24.591,42.0831 -48.40985,53.0363 z"
     id="path12"
     style="fill:#a0522d;fill-opacity:1" /><path
     fill="#d1d2d1"
     opacity="1"
     stroke="none"
     d="m 540.39794,217.22561 c 7.7559,7.4002 15.651,14.661 23.2377,22.2309 13.9671,13.9361 27.753,28.0539 41.3737,42.4264 -1.8025,-0.7613 -3.2634,-2.0581 -4.9534,-2.8894 -1.839,-0.9047 -3.8542,-1.7599 -5.8579,-1.9503 -3.1129,-0.2959 -6.3605,0.4551 -9.4101,-0.065 -7.6451,-1.3035 -15.312,-4.6765 -22.7808,-4.2069 -7.7003,0.4842 -16.0334,1.0832 -23.0134,6.58 -2.7294,2.1493 -4.1934,3.5218 -3.7309,6.764 -11.2448,-11.1165 -22.4897,-22.233 -33.896,-33.9916 -1.1503,-1.3782 -2.1394,-2.1143 -3.1284,-2.8504 -0.6078,-0.4804 -1.2157,-0.961 -1.9205,-2.1206 -0.092,-1.7426 -0.088,-2.8061 0.2439,-3.9106 2.5054,-0.8185 3.0171,-1.7876 0.9429,-3.4457 -0.8299,-0.6634 -1.6929,-1.7382 -1.828,-2.7234 -0.2807,-2.0447 -0.085,-4.1545 -0.085,-7.7076 11.7818,-6.9912 25.9155,-6.0307 40.8506,-4.5451 -0.6852,-2.9341 -1.2662,-5.422 -1.8686,-8.0013 2.2446,0.1566 4.0344,0.2815 5.8241,0.4064 z"
     id="path13"
     style="fill:#a0522d;fill-opacity:1" /><path
     fill="#d8dad9"
     opacity="1"
     stroke="none"
     d="m 328.08344,174.74421 c 1.16113,-2.6093 2.21527,-4.7608 3.5918,-7.5705 0.80407,0.7865 1.91546,1.4336 2.34045,2.3868 0.73419,1.6466 1.37946,3.4661 1.46948,5.2431 0.35285,6.9627 4.90741,10.3947 10.81122,11.2605 5.30859,0.7786 11.13678,0.7483 16.25482,-0.6661 5.26843,-1.4558 10.52747,-1.6685 15.12781,2.3235 3.78503,3.2847 7.53552,6.6145 11.1712,10.0616 0.72882,0.691 1.50379,2.3026 1.18213,2.9769 -2.25555,4.7294 0.12732,9.281 0.23072,14.2727 -8.95826,6.7948 -9.84394,15.9559 -8.84394,25.8824 0.34766,3.4516 0.0582,6.9672 -0.37317,10.8885 -4.94061,-1.4152 -4.79199,2.8498 -5.90143,4.916 -1.82928,3.4067 -3.1585,4.2823 -6.72918,1.5061 -4.53009,-3.522 -9.89887,-5.9496 -14.80341,-9.0132 -2.03912,-1.2738 -3.79901,-2.9901 -5.71106,-4.4727 -5.82525,-4.5164 -10.61755,-11.4504 -19.67285,-8.4558 -0.0839,-20.3606 -0.16772,-40.7213 -0.14459,-61.5398 z"
     id="path14"
     style="fill:#a0522d;fill-opacity:1" /><path
     fill="#eef0f0"
     opacity="1"
     stroke="none"
     d="m 328.40906,59.759566 c -0.0601,-7.65338 -0.2464,-15.30957 -0.0743,-22.95777 0.0345,-1.53753 1.03644,-3.5719 2.25885,-4.48437 12.6532,-9.44562 25.33154,-18.86798 38.27887,-27.9012501 2.98132,-2.08008 7.01575,-2.65088 11.1192,-3.72845001 0.80664,0.41614001 1.10352,0.52771001 1.44428,0.52252001 0.0995,26.0471801 0.19891,52.0944201 -0.16748,78.5994301 -8.61969,-2.12751 -6.06488,6.4848 -9.92383,9.76147 -0.85156,-1.5965 -1.6211,-3.03912 -2.10449,-3.94531 -2.29041,1.56549 -3.84143,3.5177 -5.30115,3.45166 -3.94959,-0.17865 -8.23816,0.15198 -10.88989,-4.25513 -1.31287,-2.18188 -3.50116,-4.20892 -5.77161,-5.37433 -7.30609,-3.75042 -12.1474,-9.29339 -14.69366,-17.11676 -0.38556,-1.18463 -2.73414,-1.7304 -4.17475,-2.57171 z"
     id="path15"
     style="fill:#708238;fill-opacity:1" /><path
     fill="#eef0f0"
     opacity="1"
     stroke="none"
     d="m 30.214666,40.530986 c 3.17004,-1.20959 6.09466,-2.1662 10.78234,-3.69952 -0.98755,4.27661 -1.70489,7.38336 -2.62488,11.36743 -0.51489,-0.82196 -0.2044,-0.32105 -0.20166,-0.32269 6.82862,-4.18146 10.86512,4.35186 17.0572,3.72186 3.71502,-0.37793 7.56793,0.78027 11.32543,0.58978 4.33069,-0.21966 7.79767,0.69598 8.95374,4.73474 0.29779,3.42114 0.59558,6.84223 0.9555,10.72266 -7.87304,12.80981 -8.91882,25.60937 -2.71679,39.218024 -3.49927,-1.28211 -6.90723,-2.6012 -9.90912,-4.54676 -5.27985,-3.421814 -10.62787,-5.902774 -17.19336,-5.127014 -2.59094,0.30609 -4.26624,0.41974 -4.69891,3.650214 -0.20581,1.53668 -2.19025,3.71374 -3.64588,3.95916 -1.47961,0.24945 -4.46197,-1.21978 -4.78174,-2.45526 -2.04089,-7.886784 -8.48919,-3.796874 -13.42004,-6.423094 0.45447,1.94452 0.45001,2.99444 0.76178,3.09869 4.48828,1.501344 4.80237,5.516364 5.26917,9.145264 0.43267,3.36353 -0.0838,6.83954 0.19903,10.2342 0.44714,5.36712 1.21271,10.7077 1.84351,16.05951 -1.99262,-3.79932 -3.98523,-7.59864 -5.68885,-11.82843 0.68512,-1.0293 1.08142,-1.62806 1.47773,-2.22681 -0.98108,-0.008 -1.96216,-0.0159 -2.94324,-0.0239 -10.56848,-28.056274 -7.06421,-54.529544 9.19904,-79.848084 m -9.77369,43.35559 c -0.44378,2.85419 -0.88751,5.70831 -1.33123,8.5625 0.80071,0.033 1.60144,0.0661 2.40216,0.0992 -0.15345,-2.76111 -0.30683,-5.52215 -1.07093,-8.66168 z"
     id="path16"
     style="fill:#e6b800;fill-opacity:1" /><path
     fill="#e9ebea"
     opacity="1"
     stroke="none"
     d="m 472.87544,148.53161 c -5.4421,3.0598 -9.97633,1.4823 -15.1089,-1.9286 -3.54791,-2.3578 -8.68914,-2.8774 -13.17389,-3.0999 -4.01855,-0.1992 -8.11602,1.1124 -12.17211,1.7961 -1.29102,0.2175 -2.71546,0.2795 -3.81665,0.8875 -9.68335,5.3473 -19.14203,3.761 -28.7884,-0.28 -1.95275,-0.818 -5.60009,-0.6611 -6.89801,0.6268 -3.35827,3.3323 -6.11291,2.2185 -9.46118,0.019 11.13629,-11.63237 22.46491,-23.0277 33.85889,-34.35729 8.36517,-8.31799 16.81586,-16.549924 25.62616,-24.593144 2.33795,2.00971 6.43811,3.25709 3.10638,6.77521 -3.0404,3.21057 -3.04388,8.812444 -8.22766,10.285404 -0.25134,0.0714 -0.21563,1.15302 -0.36804,2.10395 3.47693,0.39587 6.82709,0.32458 9.88849,1.23004 4.81238,1.42309 9.3045,2.21161 14.43365,0.87994 2.75467,-0.71521 7.20437,0.1012 9.07407,2.0072 3.9803,4.0575 10.3482,6.55829 10.6825,13.54474 -5.4388,5.27002 -10.8776,10.54004 -16.9044,16.37985 2.8919,2.6771 5.4611,5.0555 8.2491,7.7227 z"
     id="path17"
     style="fill:#e6b800;fill-opacity:1" /><path
     fill="#c7c7c7"
     opacity="1"
     stroke="none"
     d="m 328.11493,236.74081 c 9.1684,-3.4514 13.9607,3.4826 19.78595,7.999 1.91205,1.4826 3.67194,3.1989 5.71106,4.4727 4.90454,3.0636 10.27332,5.4912 14.80341,9.0132 3.57068,2.7762 4.8999,1.9006 6.72918,-1.5061 1.10944,-2.0662 0.96082,-6.3312 5.8158,-4.4534 0.42902,16.0415 0.5108,32.0554 0.0308,48.5259 -5.5296,0.4733 -10.50195,0.3767 -15.46228,0.5769 -1.4375,0.058 -2.84063,0.9675 -4.25958,1.4867 -5.71729,0.069 -11.43463,0.1378 -17.77283,-0.2359 -5.5401,-0.7469 -10.45941,-1.0512 -15.37866,-1.3557 -0.0387,-21.3554 -0.0773,-42.711 -0.003,-64.5233 z"
     id="path18"
     style="fill:#8b5a2b;fill-opacity:1" /><path
     fill="#eef0f0"
     opacity="1"
     stroke="none"
     d="m 481.82934,124.29723 c -0.6329,-6.85462 -7.0008,-9.35541 -10.9811,-13.41291 -1.8697,-1.906 -6.3194,-2.72241 -9.07407,-2.0072 -5.12915,1.33167 -9.62127,0.54315 -14.43365,-0.87994 -3.0614,-0.90546 -6.41156,-0.83417 -9.88849,-1.23004 0.15241,-0.95093 0.1167,-2.03254 0.36804,-2.10395 5.18378,-1.47296 5.18726,-7.074834 8.22766,-10.285404 3.33173,-3.51812 -0.76843,-4.7655 -2.79455,-6.90942 10.38287,-10.91278 20.85162,-21.46442 31.63116,-32.14978 1.6752,0.55163 3.0396,1.23706 5.0314,2.23773 0.6512,2.39606 0.9931,5.18811 -2.4107,7.43182 -0.713,0.4701 -0.7193,3.18024 -0.054,4.22126 0.5811,0.90966 2.5764,1.29712 3.9272,1.25671 3.0454,-0.0914 6.0739,-0.7868 9.1184,-0.86133 2.4441,-0.0599 4.9564,0.19342 7.3381,0.74298 2.5875,0.59711 5.0621,1.68817 7.5793,2.58228 1.2093,0.4295 2.3966,0.92017 3.6064,1.3482 0.9002,0.31849 2.5971,0.53876 2.6153,0.87476 0.2835,5.21503 6.9529,8.83343 3.784,15.30585 -11.0679,11.526974 -22.1797,22.616824 -33.5902,33.838384 z"
     id="path19"
     style="fill:#708238;fill-opacity:1" /><path
     fill="#d8dad9"
     opacity="1"
     stroke="none"
     d="m 540.25804,216.91611 c -1.6498,0.1846 -3.4396,0.06 -5.6842,-0.097 0.6024,2.5793 1.1834,5.0672 1.8686,8.0013 -14.9351,-1.4856 -29.0688,-2.4461 -40.8506,4.5451 0,3.5531 -0.1958,5.6629 0.085,7.7076 0.1351,0.9852 0.9981,2.06 1.828,2.7234 2.0742,1.6581 1.5625,2.6272 -1.2173,3.234 -2.7318,-1.0354 -4.8621,-1.9003 -6.9923,-2.765 -0.2929,-0.1882 -0.5858,-0.3763 -0.9794,-1.1953 -0.2919,-3.7503 -1.951,-5.1286 -5.0476,-4.8021 0,0 -0.033,0.018 -0.043,-0.3916 -0.526,-2.6659 -1.0417,-4.9226 -1.6303,-7.498 -1.3779,1.2117 -2.3224,2.0422 -3.2668,2.8725 -0.9336,-0.8322 -1.8673,-1.6643 -2.9582,-3.1361 -1.1143,-1.3803 -2.0713,-2.121 -3.0283,-2.8616 -0.2919,-0.1809 -0.5839,-0.3618 -0.8249,-1.1268 1.8964,-6.0332 -1.7901,-4.7641 -4.6714,-4.4729 0,0 0.3568,-0.32 0.2536,-0.534 -1.0268,-2.6213 -1.5771,-5.5068 -5.32797,-4.2922 0,0 0.003,-0.028 -0.0106,-0.019 1.38379,-5.6407 -0.36261,-10.2319 -4.42053,-14.2809 -1.01733,-1.015 -2.05194,-3.7081 -1.56219,-4.2438 2.08349,-2.2791 4.60571,-5.4211 7.21173,-5.6677 4.08858,-0.3866 8.37398,1.309 12.93838,2.193 3.2769,-3.0395 7.3952,-6.8596 11.2176,-10.4053 2.7935,2.3293 5.197,4.3334 7.6006,6.3376 0.3893,-0.42 0.7785,-0.84 1.1676,-1.2599 -0.3401,-0.6754 -0.5609,-1.4536 -1.04,-2.0092 -2.6752,-3.1019 -1.6833,-4.6885 2.0499,-5.3115 1.3058,-0.218 2.5828,-0.6082 4.2895,-0.9587 13.2464,13.1087 26.076,26.2568 39.0455,39.7143 z"
     id="path20"
     style="fill:#d2691e;fill-opacity:1" /><path
     fill="#e9ebea"
     opacity="1"
     stroke="none"
     d="m 328.31794,60.153666 c 1.53173,0.44721 3.88031,0.99298 4.26587,2.17761 2.54626,7.82337 7.38757,13.36634 14.69366,17.11676 2.27045,1.16541 4.45874,3.19245 5.77161,5.37433 2.65173,4.40711 6.9403,4.07648 10.88989,4.25513 1.45972,0.066 3.01074,-1.88617 5.30115,-3.45166 0.48339,0.90619 1.25293,2.34881 2.10449,3.94531 3.85895,-3.27667 1.30414,-11.88898 9.79632,-9.31201 0.47083,16.03748 0.60334,32.083254 0.32288,48.713324 -0.22748,2.15802 -0.0421,3.73181 0.14343,5.3056 0.0942,1.05885 0.18836,2.11765 0.17615,3.56505 -0.10638,0.3885 -0.40363,0.2601 -0.66193,0.052 -0.44635,-0.4061 -0.67376,-0.5354 -0.94043,-0.5958 -0.95886,-1.2022 -2.63751,-2.34095 -2.74994,-3.61768 -0.44567,-5.05811 -3.64386,-6.30957 -7.86492,-6.37604 -4.9831,-0.0786 -9.9751,0.11994 -14.94843,-0.11554 -1.40704,-0.0666 -2.99536,-0.96923 -4.0918,-1.9469 -2.20129,-1.96252 -3.75909,-4.90429 -6.23126,-6.2525 -5.37201,-2.92987 -8.51153,-7.19781 -9.98035,-12.93249 -0.84472,-3.29834 -2.27722,-4.80573 -5.65753,-1.84931 -0.36603,-14.507574 -0.39801,-29.084474 -0.33886,-44.055484 z"
     id="path21"
     style="fill:#e6b800;fill-opacity:1" /><path
     fill="#e9ebea"
     opacity="1"
     stroke="none"
     d="m 28.211976,134.80107 c -0.67279,-5.6947 -1.43836,-11.03528 -1.8855,-16.4024 -0.28278,-3.39466 0.23364,-6.87067 -0.19903,-10.2342 -0.4668,-3.6289 -0.78089,-7.64392 -5.26917,-9.145264 -0.31177,-0.10425 -0.30731,-1.15417 -0.76178,-3.09869 4.93085,2.62622 11.37915,-1.46369 13.42004,6.423094 0.31977,1.23548 3.30213,2.70471 4.78174,2.45526 1.45563,-0.24542 3.44007,-2.42248 3.64588,-3.95916 0.43267,-3.230474 2.10797,-3.344124 4.69891,-3.650214 6.56549,-0.77576 11.91351,1.7052 17.19336,5.127014 3.00189,1.94556 6.40985,3.26465 9.97296,4.91541 6.06732,9.44922 14.9895,14.48401 25.00281,17.96533 0.83997,0.29199 1.932494,-0.1427 3.174074,-0.10303 -1.75867,0.64478 -3.967224,1.93549 -5.773624,1.51178 -5.08105,-1.19183 -9.37146,-2.78448 -13.07617,3.38471 -1.24774,2.07794 -6.7663,2.43689 -10.22705,2.17627 -9.14148,-0.68854 -18.18012,-3.68982 -27.38062,-0.16285 -2.90143,1.11225 -3.72125,1.57251 -3.21997,5.69278 0.80286,6.5999 6.53223,9.9509 7.6543,15.7838 0.27008,1.4039 -0.14941,2.9404 -0.51996,4.6231 -8.97668,-5.9486 -15.67535,-13.9193 -21.2312,-23.30274 z"
     id="path22"
     style="fill:#daa520;fill-opacity:1" /><path
     fill="#c7c7c7"
     opacity="1"
     stroke="none"
     d="m 535.26224,286.17441 c -0.4619,-3.3011 1.0021,-4.6736 3.7315,-6.8229 6.98,-5.4968 15.3131,-6.0958 23.0134,-6.58 7.4688,-0.4696 15.1357,2.9034 22.7808,4.2069 3.0496,0.5199 6.2972,-0.2311 9.4101,0.065 2.0037,0.1904 4.0189,1.0456 5.8579,1.9503 1.69,0.8313 3.1509,2.1281 5.0944,3.2007 7.1085,6.5697 13.8353,13.1586 20.5622,19.7473 -0.1816,0.384 -0.3631,0.7679 -0.5446,1.1519 -1.3897,0 -2.7794,3e-4 -4.1691,-2e-4 -20.9551,-0.01 -41.9131,-0.2137 -62.863,0.1123 -5.5033,0.086 -9.182,-1.627 -11.8643,-6.2004 -0.4551,-0.7758 -1.3653,-1.2847 -1.9543,-2.4233 0.1445,-4.3802 -2.7884,-4.4956 -5.4787,-4.9184 0,0 0.3429,-0.3183 0.2514,-0.5184 -1.2979,-1.1046 -2.5042,-2.0092 -3.7106,-2.9137 0,0 -0.1177,0 -0.1171,-0.057 z"
     id="path23"
     style="fill:#8b5a2b;fill-opacity:1" /><path
     fill="#eef0f0"
     opacity="1"
     stroke="none"
     d="m 93.588926,56.168196 c -2.9541,-1.30103 -5.39917,-3.21478 -8.0979,-3.69129 -2.37304,-0.41906 -5.03015,0.77057 -7.66846,1.2699 1.33149,-3.20007 2.67792,-5.55481 3.28156,-8.08673 0.98102,-4.11493 3.31104,-4.84973 7.03833,-3.92969 3.01056,0.74317 6.11584,1.15473 9.20142,1.53058 5.707394,0.69519 11.427674,1.29157 17.150024,1.85333 1.81616,0.17823 3.69983,0.396 5.47839,0.11914 16.76166,-2.60992 33.61798,-0.9403 50.39399,-0.73578 16.80358,0.20484 33.7633,-0.40234 50.37713,3.55897 3.11096,0.74176 6.55036,0.1062 10.26313,0.1062 -0.3147,2.51568 -0.5337,4.26629 -0.75525,6.40295 -39.13782,0.36658 -78.2732,0.29004 -117.40827,0.3858 -6.28601,0.0153 -12.57025,0.79975 -19.254094,1.21662 z"
     id="path24"
     style="fill:#556b2f;fill-opacity:1" /><path
     fill="#d8dad9"
     opacity="1"
     stroke="none"
     d="m 689.62044,233.83311 c -4.0523,1.4385 -6.8195,0.9889 -10.763,-2.6537 -5.366,-4.9563 -12.978,-8.685 -20.179,-10.0709 -5.7835,-1.1129 -12.3933,2.0159 -18.6189,3.3451 -0.5568,0.1189 -1.1315,0.7591 -1.4477,1.3027 -2.3178,3.9853 -4.5719,8.0077 -7.0976,12.2665 -0.9203,-1.5135 -1.5889,-3.2753 -2.2378,-5.4005 0.5343,-5.2588 1.9576,-10.2686 1.3594,-15.0239 -1.0019,-7.9638 -0.091,-15.5412 2.17,-23.0317 0.4064,-1.3465 2.5332,-3.1453 3.8037,-3.0972 6.8598,0.26 14.4911,-2.4488 19.9351,4.3653 0.1926,0.241 0.5925,0.5126 0.8526,0.4744 6.9136,-1.0144 10.3545,5.2601 15.7177,7.5104 3.2191,1.3505 5.7429,2.5578 3.6842,7.6546 -1.4983,3.7094 0.083,8.7786 0.8435,13.1454 0.1011,0.5812 3.4589,0.5951 5.5632,0.5404 2.2449,2.5687 4.2348,5.4689 6.4146,8.6731 z"
     id="path25"
     style="fill:#d2691e;fill-opacity:1"
     sodipodi:nodetypes="cccscccsscsccsscc" /><path
     fill="#f6f8f7"
     opacity="1"
     stroke="none"
     d="m 649.84944,32.225076 c 1.6551,1.4209 2.9308,3.02948 4.3433,4.50769 2.437,2.5506 3.1346,4.80805 -0.1377,7.40344 -3.5602,2.82374 -6.5546,6.43854 -10.3304,8.88245 -2.1035,1.36157 -5.2953,1.04187 -8.3642,1.32098 4.4786,-7.43438 9.3249,-14.70996 14.489,-22.11456 z"
     id="path26"
     style="fill:#708238;fill-opacity:1" /><path
     fill="#e1e3e2"
     opacity="1"
     stroke="none"
     d="m 292.15198,241.91681 c -0.74176,-1.0164 -1.59924,-2.328 -1.85913,-3.749 -0.44086,-2.4114 -0.35297,-4.9168 -0.75879,-7.3374 -0.83404,-4.9743 4.04444,-6.2157 6.26728,-9.4656 -0.94239,6.6889 -2.21931,13.4482 -3.64936,20.552 z"
     id="path27"
     style="fill:#a0522d;fill-opacity:1" /><path
     fill="#f6f8f7"
     opacity="1"
     stroke="none"
     d="m 767.70364,55.061016 c 0.4291,-0.64709 1.3124,-1.68213 2.2104,-1.69501 7.7972,-0.11169 15.5973,-0.059 23.3957,0.0185 0.5499,0.005 1.0943,0.59533 1.7787,1.2763 -8.8829,0.40393 -17.9033,0.44507 -27.3848,0.40021 z"
     id="path28"
     style="fill:#8b5a2b;fill-opacity:1" /><path
     fill="#d8dad9"
     opacity="1"
     stroke="none"
     d="m 625.60624,176.71301 c 0.7237,-0.263 1.8747,-0.049 1.8681,0.1195 -0.2134,5.4309 -0.5384,10.8577 -1.2726,16.3411 -0.5199,-5.2975 -0.6138,-10.6513 -0.5955,-16.4606 z"
     id="path29"
     style="fill:#daa520;fill-opacity:1" /><path
     fill="#f6f8f7"
     opacity="1"
     stroke="none"
     d="m 628.51984,71.634626 c 1.3536,0.58459 3.2408,1.29535 3.6095,2.47906 1.3109,4.2085 -0.6903,9.69525 -3.4468,10.92157 0,-3.39245 0,-6.82098 -0.2814,-10.52545 -0.2022,-1.02795 -0.1232,-1.77997 0.1187,-2.87518 z"
     id="path30"
     style="fill:#708238;fill-opacity:1" /><path
     fill="#d8dad9"
     opacity="1"
     stroke="none"
     d="m 361.72602,302.93451 c 0.96216,-0.598 2.36529,-1.5074 3.80279,-1.5655 4.96033,-0.2002 9.93268,-0.1036 15.37909,-0.1161 -0.5968,0.6033 -1.65698,1.6856 -2.75006,1.72 -5.32019,0.1675 -10.64923,0.054 -16.43182,-0.038 z"
     id="path31"
     style="fill:#8b5a2b;fill-opacity:1" /><path
     fill="#eef0f0"
     opacity="1"
     stroke="none"
     d="m 60.821956,12.158186 c 1.58857,0.80151 2.86677,1.70599 4.9079,3.15039 -2.3883,1.51904 -4.29089,2.72913 -6.79785,4.32355 -0.21429,-2.22126 -0.35388,-3.66803 -0.76459,-5.31342 0.60065,-0.81824 1.47242,-1.43787 2.65454,-2.16052 z"
     id="path32"
     style="fill:#708238;fill-opacity:1" /><path
     fill="#d8dad9"
     opacity="1"
     stroke="none"
     d="m 328.09015,301.71411 c 4.94684,-0.1455 9.86615,0.1588 14.94617,0.8033 -4.88403,0.109 -9.92896,-0.1222 -14.94617,-0.8033 z"
     id="path33"
     style="fill:#8b5a2b;fill-opacity:1" /><path
     fill="#d8dad9"
     opacity="1"
     stroke="none"
     d="m 625.66824,199.72891 c 4.1055,1.1058 4.3204,2.8186 0.781,8.6817 -0.4604,0.1133 -0.6363,-0.085 -0.6362,-0.085 -0.088,-2.7395 -0.176,-5.4788 -0.1448,-8.5966 z"
     id="path34"
     style="fill:#daa520;fill-opacity:1" /><path
     fill="#d8dad9"
     opacity="1"
     stroke="none"
     d="m 632.42374,242.64541 c 6.3916,0.2672 4.3147,5.5691 4.9659,9.4567 -1.8248,-2.8762 -3.3785,-5.9886 -4.9659,-9.4567 z"
     id="path35"
     style="fill:#a0522d;fill-opacity:1" /><path
     fill="#e1e3e2"
     opacity="1"
     stroke="none"
     d="m 489.43364,240.56481 c 1.9917,0.5655 4.122,1.4304 6.5264,2.5068 0.2699,1.2752 0.2654,2.3387 0.2693,3.8008 -2.2135,-1.7372 -4.4353,-3.8728 -6.7957,-6.3076 z"
     id="path36"
     style="fill:#a0522d;fill-opacity:1" /><path
     fill="#e1e3e2"
     opacity="1"
     stroke="none"
     d="m 478.46514,229.54201 c 0.807,-1.1212 1.7515,-1.9517 3.1294,-3.1634 0.5886,2.5754 1.1043,4.8321 1.6373,7.4806 -1.5317,-1.0808 -3.0806,-2.5536 -4.7667,-4.3172 z"
     id="path37"
     style="fill:#d2691e;fill-opacity:1" /><path
     fill="#e1e3e2"
     opacity="1"
     stroke="none"
     d="m 466.99874,217.93471 c 2.7275,-0.5722 6.414,-1.8413 4.4128,3.9504 -1.5234,-0.9946 -2.8912,-2.332 -4.4128,-3.9504 z"
     id="path38"
     style="fill:#d2691e;fill-opacity:1" /><path
     fill="#eef0f0"
     opacity="1"
     stroke="none"
     d="m 673.77934,13.101056 c -0.071,3.79632 -2.9564,3.9917 -6.2861,4.09973 1.7106,-1.35962 3.8219,-2.69659 6.2861,-4.09973 z"
     id="path39"
     style="fill:#006400;fill-opacity:1" /><path
     fill="#d1d2d1"
     opacity="1"
     stroke="none"
     d="m 538.99974,289.93751 c 2.5291,0.1487 5.462,0.2641 5.1613,4.3316 -1.8448,-1.2233 -3.4224,-2.6405 -5.1613,-4.3316 z"
     id="path40"
     style="fill:#8b5a2b;fill-opacity:1" /><path
     fill="#e1e3e2"
     opacity="1"
     stroke="none"
     d="m 461.94654,213.09181 c 3.5749,-1.4789 6.19131,1.54023 4.9821,4.1971 -0.81018,1.78013 -3.2263,-2.4942 -4.9821,-4.1971 z"
     id="path41"
     sodipodi:nodetypes="csc"
     style="fill:#d2691e;fill-opacity:1" /><path
     fill="#e1e3e2"
     opacity="1"
     stroke="none"
     d="m 483.41874,234.55331 c 0,0 4.6051,0.7667 4.8191,4.2606 -1.5408,-1.0754 -4.8191,-4.2606 -4.8191,-4.2606 z"
     id="path42"
     style="fill:#d2691e;fill-opacity:1"
     sodipodi:nodetypes="zcz" /><path
     fill="#eef0f0"
     opacity="1"
     stroke="none"
     d="m 625.70034,208.69681 c 0.1126,-0.3713 0.38044,-0.24043 0.4065,-0.1086 0.3539,1.79014 0.3859,3.5502 0.2538,5.5277 -0.4347,-1.5263 -0.6037,-3.2871 -0.6603,-5.4191 z"
     id="path43"
     style="fill:#daa520;fill-opacity:1"
     sodipodi:nodetypes="cscc" /><path
     fill="#eef0f0"
     opacity="1"
     stroke="none"
     d="m 381.73133,133.87486 c -0.30957,-1.17059 -0.495,-2.74438 -0.40039,-4.45086 0.36157,1.2608 0.44305,2.65423 0.40039,4.45086 z"
     id="path44" /><path
     fill="#d1d2d1"
     opacity="1"
     stroke="none"
     d="m 535.52274,286.50671 c 1.063,0.6291 2.2693,1.5337 3.4062,2.808 -1.134,-0.5977 -2.1983,-1.5652 -3.4062,-2.808 z"
     id="path45"
     style="fill:#4e3629;fill-opacity:1" /><path
     fill="#d8dad9"
     opacity="1"
     stroke="none"
     d="m 498.32894,249.56701 c 0.8985,0.4426 1.8876,1.1787 2.8874,2.2523 -0.9251,-0.4278 -1.861,-1.1932 -2.8874,-2.2523 z"
     id="path46"
     style="fill:#8b5a2b;fill-opacity:1" /><path
     fill="#e9ebea"
     opacity="1"
     stroke="none"
     d="m 21.095156,120.65965 c 0.90155,-0.27258 1.88263,-0.26465 2.86371,-0.25671 -0.39631,0.59875 -0.79261,1.19751 -1.51703,1.85681 -0.64118,-0.39948 -0.95423,-0.8595 -1.34668,-1.6001 z"
     id="path47"
     style="fill:#e6b800;fill-opacity:1" /><path
     fill="#e1e3e2"
     opacity="1"
     stroke="none"
     d="m 472.45814,223.53171 c -0.26283,-0.92218 2.5324,0.84733 2.7796,2.2963 0.16385,0.96042 -2.37603,-0.88032 -2.7796,-2.2963 z"
     id="path48"
     sodipodi:nodetypes="sss"
     style="fill:#d2691e;fill-opacity:1" /><path
     fill="#eef0f0"
     opacity="1"
     stroke="none"
     d="m 381.68183,144.02541 c -0.21546,-0.054 -0.30738,-0.3377 -0.23535,-0.6665 0.22888,0.1153 0.29388,0.2763 0.23535,0.6665 z"
     id="path49" /><path
     fill="#c7c7c7"
     opacity="1"
     stroke="none"
     d="m 381.39765,0.90122589 c -0.30249,0.31421001 -0.59937,0.20264001 -1.01844,-0.20239 0.21601,-0.15332 0.59815,-0.13001 1.01844,0.20239 z"
     id="path50" /><path
     fill="#c7c7c7"
     opacity="1"
     stroke="none"
     d="m 932.11234,266.37801 c 0.5198,0.6236 0.7129,1.2625 0.9062,1.9015 -0.7443,0.092 -1.4884,0.1852 -2.2326,0.2777 0.3333,-0.7212 0.6665,-1.4425 1.3264,-2.1792 z"
     id="path51" /><path
     fill="#c7c7c7"
     opacity="1"
     stroke="none"
     d="m 929.05504,272.97621 c -0.6302,-0.6232 -0.9378,-1.3251 -1.2453,-2.0269 0.4376,-0.1139 0.8751,-0.2278 1.3128,-0.3418 0.085,0.7634 0.1701,1.5268 -0.067,2.3687 z"
     id="path52" /><path
     fill="#eef0f0"
     opacity="1"
     stroke="none"
     d="m 380.2829,137.47561 c 0.1648,-0.1156 0.39221,0.014 0.6825,0.3768 -0.19165,0.167 -0.41925,0.045 -0.6825,-0.3768 z"
     id="path53" /><path
     fill="#e1e3e2"
     opacity="1"
     stroke="none"
     d="m 627.70354,152.80501 c -0.02,-0.04 0.02,0.04 0,0 z"
     id="path54" /><path
     fill="#eef0f0"
     opacity="1"
     stroke="none"
     d="m 503.13114,27.831036 c 4.0689,2.23981 3.1543,4.51062 -0.9214,7.81439 0.3748,-3.07806 0.6141,-5.04285 0.8576,-7.42029 0,-0.41272 0.083,-0.34753 0.064,-0.3941 z"
     id="path55"
     style="fill:#556b2f;fill-opacity:1" /><path
     fill="#eef0f0"
     opacity="1"
     stroke="none"
     d="m 482.05584,54.790016 c 0.5816,-0.61541 1.3807,-1.01879 2.18,-1.42218 0.1364,0.41858 0.2727,0.83716 0.4091,1.25568 -0.7905,0.12622 -1.5809,0.25238 -2.5891,0.1665 z"
     id="path56"
     style="fill:#556b2f;fill-opacity:1" /><path
     fill="#e9ebea"
     opacity="1"
     stroke="none"
     d="m 20.746276,84.075786 c 0.4588,2.95032 0.61218,5.71136 0.76563,8.47247 -0.80072,-0.0331 -1.60145,-0.0662 -2.40216,-0.0992 0.44372,-2.85419 0.88745,-5.70831 1.63653,-8.37329 z"
     id="path57"
     style="fill:#e6b800;fill-opacity:1" /></g>
</svg>
