<?xml version="1.0" encoding="UTF-8" standalone="no"?>
<svg
  version="1.1"
  id="svg1"
  width="512"
  height="512"
  viewBox="0 0 512 512"
  xmlns="http://www.w3.org/2000/svg"
  xmlns:svg="http://www.w3.org/2000/svg">
  <title id="s-logo-title">S</title>
  <g
    id="s-logo-group"
    transform="translate(-76.209167,-336.32715)">
    <path
      style="fill:#3cf2ff;stroke-width:0.689989"
      d="m 156.27369,803.11866 45.1923,-45.20825 95.91044,-0.002 c 65.43677,-0.002 97.88352,-0.24278 102.12035,-0.75994 14.46686,-1.76585 27.08748,-6.42822 39.384,-14.54943 25.32062,-16.72293 40.38686,-44.52281 40.5014,-74.73224 0.0548,-14.44941 -2.65463,-26.09106 -8.99271,-38.63939 -8.98089,-17.7806 -27.34079,-35.14492 -46.74994,-44.21486 -7.62813,-3.56452 -7.95468,-3.67095 -47.60238,-15.51331 -81.73087,-24.41216 -107.47974,-32.36092 -110.55086,-34.12736 -4.80575,-2.76415 -9.52777,-8.03158 -11.31124,-12.61774 -2.12384,-5.46138 -2.09251,-12.81402 0.0785,-18.41461 2.18745,-5.64307 8.42188,-11.90385 14.14535,-14.20516 l 4.13993,-1.66459 h 66.23894 c 60.92449,0 66.8479,0.10116 73.82882,1.26088 29.03356,4.82326 52.41619,13.87899 75.2088,29.12723 11.10659,7.43029 18.24809,13.32537 27.97466,23.09214 25.76356,25.87005 41.76706,57.1234 48.40064,94.52199 2.10743,11.88114 2.29397,43.10401 0.32734,54.7846 -9.18271,54.53922 -39.24057,100.6064 -84.60827,129.67204 -13.88597,8.89631 -37.65808,18.88078 -54.19338,22.76166 -19.21453,4.50971 -7.20646,4.19402 -168.3573,4.42605 l -146.27766,0.21078 z M 269.77885,696.04082 C 205.1935,690.6913 145.37084,650.23906 117.01541,592.74174 97.34332,552.85194 93.31482,510.26806 105.20679,467.91695 124.65418,398.65864 184.6634,346.65911 255.84192,337.38777 c 7.09756,-0.92448 26.44811,-1.06062 150.76061,-1.06062 h 142.6179 l -45.19032,45.19428 -45.19033,45.19427 -94.18547,0.004 c -79.093,0.004 -95.23584,0.16544 -100.74036,1.01117 -37.28879,5.72913 -66.47764,32.81126 -75.03851,69.62254 -1.52102,6.54033 -1.78217,9.25824 -1.76512,18.37079 0.0237,12.70237 1.51222,20.98753 5.7342,31.91795 5.09258,13.18439 11.7597,23.26459 22.45571,33.95143 8.12781,8.12084 15.44014,13.51253 25.33224,18.67854 8.65362,4.51924 13.56599,6.41131 27.07642,10.42887 5.6924,1.69275 15.31775,4.59678 21.38965,6.45341 10.12483,3.09591 42.68361,12.9994 70.72387,21.51226 6.26165,1.901 16.96311,5.13939 23.78101,7.19641 6.8179,2.05702 13.69919,4.37082 15.29177,5.14177 4.80784,2.32743 8.97798,6.52803 11.43456,11.51807 1.98145,4.02486 2.25966,5.27021 2.26559,10.14101 0.005,4.67945 -0.30812,6.23538 -1.99554,9.89374 -2.78911,6.04682 -7.96043,10.69039 -13.97382,12.54775 -4.40238,1.35975 -6.06812,1.3929 -64.30332,1.27992 -32.88112,-0.0638 -61.02583,-0.21886 -62.54381,-0.34459 z"
      id="s-logo-path" />
  </g>
</svg>
